<mxfile host="app.diagrams.net" agent="Mozilla/5.0 (Windows NT 10.0; Win64; x64) AppleWebKit/537.36 (KHTML, like Gecko) Chrome/131.0.0.0 Safari/537.36" version="26.0.5">
  <diagram name="PÃ¡gina-1" id="fNjd8eCqbaCZ5s9zoflg">
    <mxGraphModel grid="1" page="1" gridSize="10" guides="1" tooltips="1" connect="1" arrows="1" fold="1" pageScale="1" pageWidth="827" pageHeight="1169" math="0" shadow="0">
      <root>
        <mxCell id="0" />
        <mxCell id="1" parent="0" />
        <mxCell id="mPTuB6QVVoQQnQgVLU1l-2" value="Producte (id)" style="rounded=0;whiteSpace=wrap;html=1;" vertex="1" parent="1">
          <mxGeometry x="-60" y="260" width="120" height="60" as="geometry" />
        </mxCell>
        <mxCell id="mPTuB6QVVoQQnQgVLU1l-3" value="botiga" style="whiteSpace=wrap;html=1;aspect=fixed;" vertex="1" parent="1">
          <mxGeometry x="374" y="100" width="80" height="80" as="geometry" />
        </mxCell>
        <mxCell id="mPTuB6QVVoQQnQgVLU1l-4" value="Producte (id)" style="rounded=0;whiteSpace=wrap;html=1;" vertex="1" parent="1">
          <mxGeometry x="520" y="320" width="120" height="60" as="geometry" />
        </mxCell>
        <mxCell id="mPTuB6QVVoQQnQgVLU1l-5" value="Producte (id)" style="rounded=0;whiteSpace=wrap;html=1;" vertex="1" parent="1">
          <mxGeometry x="740" y="260" width="120" height="60" as="geometry" />
        </mxCell>
        <mxCell id="mPTuB6QVVoQQnQgVLU1l-6" value="Producte (id)" style="rounded=0;whiteSpace=wrap;html=1;" vertex="1" parent="1">
          <mxGeometry x="180" y="320" width="120" height="60" as="geometry" />
        </mxCell>
        <mxCell id="mPTuB6QVVoQQnQgVLU1l-11" value="" style="endArrow=none;html=1;rounded=0;entryX=0;entryY=0.5;entryDx=0;entryDy=0;exitX=0.442;exitY=-0.033;exitDx=0;exitDy=0;exitPerimeter=0;" edge="1" parent="1" source="mPTuB6QVVoQQnQgVLU1l-2" target="mPTuB6QVVoQQnQgVLU1l-3">
          <mxGeometry width="50" height="50" relative="1" as="geometry">
            <mxPoint x="70" y="260" as="sourcePoint" />
            <mxPoint x="370" y="140" as="targetPoint" />
            <Array as="points">
              <mxPoint x="100" y="230" />
            </Array>
          </mxGeometry>
        </mxCell>
        <mxCell id="mPTuB6QVVoQQnQgVLU1l-12" value="" style="endArrow=none;html=1;rounded=0;entryX=1.013;entryY=0.425;entryDx=0;entryDy=0;entryPerimeter=0;exitX=0.858;exitY=0;exitDx=0;exitDy=0;exitPerimeter=0;" edge="1" parent="1" source="mPTuB6QVVoQQnQgVLU1l-5" target="mPTuB6QVVoQQnQgVLU1l-3">
          <mxGeometry width="50" height="50" relative="1" as="geometry">
            <mxPoint x="730" y="260" as="sourcePoint" />
            <mxPoint x="1034" y="140" as="targetPoint" />
            <Array as="points">
              <mxPoint x="760" y="230" />
            </Array>
          </mxGeometry>
        </mxCell>
        <mxCell id="mPTuB6QVVoQQnQgVLU1l-13" value="" style="endArrow=none;html=1;rounded=0;entryX=1;entryY=0.75;entryDx=0;entryDy=0;exitX=0.5;exitY=0;exitDx=0;exitDy=0;" edge="1" parent="1" source="mPTuB6QVVoQQnQgVLU1l-4" target="mPTuB6QVVoQQnQgVLU1l-3">
          <mxGeometry width="50" height="50" relative="1" as="geometry">
            <mxPoint x="620" y="258" as="sourcePoint" />
            <mxPoint x="854" y="140" as="targetPoint" />
            <Array as="points">
              <mxPoint x="580" y="230" />
            </Array>
          </mxGeometry>
        </mxCell>
        <mxCell id="mPTuB6QVVoQQnQgVLU1l-14" value="" style="endArrow=none;html=1;rounded=0;exitX=0.592;exitY=0.017;exitDx=0;exitDy=0;exitPerimeter=0;entryX=0;entryY=0.75;entryDx=0;entryDy=0;" edge="1" parent="1" source="mPTuB6QVVoQQnQgVLU1l-6" target="mPTuB6QVVoQQnQgVLU1l-3">
          <mxGeometry width="50" height="50" relative="1" as="geometry">
            <mxPoint x="220" y="260" as="sourcePoint" />
            <mxPoint x="370" y="160" as="targetPoint" />
            <Array as="points">
              <mxPoint x="250" y="230" />
            </Array>
          </mxGeometry>
        </mxCell>
        <mxCell id="mPTuB6QVVoQQnQgVLU1l-15" value="nom" style="rhombus;whiteSpace=wrap;html=1;" vertex="1" parent="1">
          <mxGeometry x="130" y="520" width="80" height="80" as="geometry" />
        </mxCell>
        <mxCell id="mPTuB6QVVoQQnQgVLU1l-16" value="nom" style="rhombus;whiteSpace=wrap;html=1;" vertex="1" parent="1">
          <mxGeometry x="-120" y="400" width="80" height="80" as="geometry" />
        </mxCell>
        <mxCell id="mPTuB6QVVoQQnQgVLU1l-17" value="nom" style="rhombus;whiteSpace=wrap;html=1;" vertex="1" parent="1">
          <mxGeometry x="500" y="525" width="80" height="80" as="geometry" />
        </mxCell>
        <mxCell id="mPTuB6QVVoQQnQgVLU1l-18" value="nom" style="rhombus;whiteSpace=wrap;html=1;" vertex="1" parent="1">
          <mxGeometry x="820" y="400" width="80" height="80" as="geometry" />
        </mxCell>
        <mxCell id="mPTuB6QVVoQQnQgVLU1l-19" value="descripcio" style="rhombus;whiteSpace=wrap;html=1;" vertex="1" parent="1">
          <mxGeometry x="-40" y="400" width="80" height="80" as="geometry" />
        </mxCell>
        <mxCell id="mPTuB6QVVoQQnQgVLU1l-20" value="preu" style="rhombus;whiteSpace=wrap;html=1;" vertex="1" parent="1">
          <mxGeometry x="660" y="525" width="80" height="80" as="geometry" />
        </mxCell>
        <mxCell id="mPTuB6QVVoQQnQgVLU1l-21" value="descripcio" style="rhombus;whiteSpace=wrap;html=1;" vertex="1" parent="1">
          <mxGeometry x="580" y="525" width="80" height="80" as="geometry" />
        </mxCell>
        <mxCell id="mPTuB6QVVoQQnQgVLU1l-22" value="descripcio" style="rhombus;whiteSpace=wrap;html=1;" vertex="1" parent="1">
          <mxGeometry x="210" y="525" width="80" height="70" as="geometry" />
        </mxCell>
        <mxCell id="mPTuB6QVVoQQnQgVLU1l-23" value="descripcio" style="rhombus;whiteSpace=wrap;html=1;" vertex="1" parent="1">
          <mxGeometry x="900" y="400" width="80" height="80" as="geometry" />
        </mxCell>
        <mxCell id="mPTuB6QVVoQQnQgVLU1l-24" value="preu" style="rhombus;whiteSpace=wrap;html=1;" vertex="1" parent="1">
          <mxGeometry x="40" y="400" width="80" height="80" as="geometry" />
        </mxCell>
        <mxCell id="mPTuB6QVVoQQnQgVLU1l-25" value="categoria" style="rhombus;whiteSpace=wrap;html=1;" vertex="1" parent="1">
          <mxGeometry x="120" y="400" width="80" height="80" as="geometry" />
        </mxCell>
        <mxCell id="mPTuB6QVVoQQnQgVLU1l-26" value="preu" style="rhombus;whiteSpace=wrap;html=1;" vertex="1" parent="1">
          <mxGeometry x="980" y="400" width="80" height="80" as="geometry" />
        </mxCell>
        <mxCell id="mPTuB6QVVoQQnQgVLU1l-27" value="preu" style="rhombus;whiteSpace=wrap;html=1;" vertex="1" parent="1">
          <mxGeometry x="290" y="520" width="80" height="80" as="geometry" />
        </mxCell>
        <mxCell id="mPTuB6QVVoQQnQgVLU1l-28" value="categoria" style="rhombus;whiteSpace=wrap;html=1;" vertex="1" parent="1">
          <mxGeometry x="370" y="520" width="80" height="80" as="geometry" />
        </mxCell>
        <mxCell id="mPTuB6QVVoQQnQgVLU1l-29" value="disponibilitat" style="rhombus;whiteSpace=wrap;html=1;" vertex="1" parent="1">
          <mxGeometry x="580" y="605" width="80" height="80" as="geometry" />
        </mxCell>
        <mxCell id="mPTuB6QVVoQQnQgVLU1l-30" value="categoria" style="rhombus;whiteSpace=wrap;html=1;" vertex="1" parent="1">
          <mxGeometry x="740" y="525" width="80" height="80" as="geometry" />
        </mxCell>
        <mxCell id="mPTuB6QVVoQQnQgVLU1l-31" value="categoria" style="rhombus;whiteSpace=wrap;html=1;" vertex="1" parent="1">
          <mxGeometry x="1060" y="400" width="80" height="80" as="geometry" />
        </mxCell>
        <mxCell id="mPTuB6QVVoQQnQgVLU1l-32" value="disponibilitat" style="rhombus;whiteSpace=wrap;html=1;" vertex="1" parent="1">
          <mxGeometry x="-40" y="480" width="80" height="80" as="geometry" />
        </mxCell>
        <mxCell id="mPTuB6QVVoQQnQgVLU1l-33" value="disponibilitat" style="rhombus;whiteSpace=wrap;html=1;" vertex="1" parent="1">
          <mxGeometry x="900" y="480" width="80" height="80" as="geometry" />
        </mxCell>
        <mxCell id="mPTuB6QVVoQQnQgVLU1l-35" value="disponibilitat" style="rhombus;whiteSpace=wrap;html=1;" vertex="1" parent="1">
          <mxGeometry x="210" y="595" width="80" height="80" as="geometry" />
        </mxCell>
        <mxCell id="mPTuB6QVVoQQnQgVLU1l-36" value="imatge" style="rhombus;whiteSpace=wrap;html=1;" vertex="1" parent="1">
          <mxGeometry x="290" y="600" width="80" height="80" as="geometry" />
        </mxCell>
        <mxCell id="mPTuB6QVVoQQnQgVLU1l-37" value="imatge" style="rhombus;whiteSpace=wrap;html=1;" vertex="1" parent="1">
          <mxGeometry x="40" y="480" width="80" height="80" as="geometry" />
        </mxCell>
        <mxCell id="mPTuB6QVVoQQnQgVLU1l-38" value="imatge" style="rhombus;whiteSpace=wrap;html=1;" vertex="1" parent="1">
          <mxGeometry x="980" y="480" width="80" height="80" as="geometry" />
        </mxCell>
        <mxCell id="mPTuB6QVVoQQnQgVLU1l-39" value="imatge" style="rhombus;whiteSpace=wrap;html=1;" vertex="1" parent="1">
          <mxGeometry x="660" y="605" width="80" height="80" as="geometry" />
        </mxCell>
        <mxCell id="mPTuB6QVVoQQnQgVLU1l-40" value="" style="shape=flexArrow;endArrow=classic;html=1;rounded=0;entryX=0.5;entryY=0;entryDx=0;entryDy=0;" edge="1" parent="1" target="mPTuB6QVVoQQnQgVLU1l-19">
          <mxGeometry width="50" height="50" relative="1" as="geometry">
            <mxPoint x="-5" y="320" as="sourcePoint" />
            <mxPoint x="5" y="390" as="targetPoint" />
          </mxGeometry>
        </mxCell>
        <mxCell id="mPTuB6QVVoQQnQgVLU1l-41" value="" style="shape=flexArrow;endArrow=classic;html=1;rounded=0;entryX=0.5;entryY=0;entryDx=0;entryDy=0;" edge="1" parent="1" target="mPTuB6QVVoQQnQgVLU1l-23">
          <mxGeometry width="50" height="50" relative="1" as="geometry">
            <mxPoint x="797.5" y="320" as="sourcePoint" />
            <mxPoint x="802.5" y="400" as="targetPoint" />
          </mxGeometry>
        </mxCell>
        <mxCell id="mPTuB6QVVoQQnQgVLU1l-42" value="" style="shape=flexArrow;endArrow=classic;html=1;rounded=0;entryX=0.5;entryY=0;entryDx=0;entryDy=0;" edge="1" parent="1" target="mPTuB6QVVoQQnQgVLU1l-21">
          <mxGeometry width="50" height="50" relative="1" as="geometry">
            <mxPoint x="575" y="380" as="sourcePoint" />
            <mxPoint x="580" y="460" as="targetPoint" />
          </mxGeometry>
        </mxCell>
        <mxCell id="mPTuB6QVVoQQnQgVLU1l-43" value="" style="shape=flexArrow;endArrow=classic;html=1;rounded=0;entryX=0.5;entryY=0;entryDx=0;entryDy=0;" edge="1" parent="1" target="mPTuB6QVVoQQnQgVLU1l-22">
          <mxGeometry width="50" height="50" relative="1" as="geometry">
            <mxPoint x="247.5" y="380" as="sourcePoint" />
            <mxPoint x="252.5" y="460" as="targetPoint" />
          </mxGeometry>
        </mxCell>
      </root>
    </mxGraphModel>
  </diagram>
</mxfile>
